<?xml version="1.0" encoding="UTF-8" standalone="no"?>
<!-- Created with Inkscape (http://www.inkscape.org/) -->

<svg
   width="6.1256304mm"
   height="6.1256304mm"
   viewBox="0 0 6.1256304 6.1256304"
   version="1.1"
   id="svg1"
   inkscape:version="1.3.2 (091e20ef0f, 2023-11-25)"
   sodipodi:docname="padlock_icon.svg"
   xmlns:inkscape="http://www.inkscape.org/namespaces/inkscape"
   xmlns:sodipodi="http://sodipodi.sourceforge.net/DTD/sodipodi-0.dtd"
   xmlns="http://www.w3.org/2000/svg"
   xmlns:svg="http://www.w3.org/2000/svg">
  <sodipodi:namedview
     id="namedview1"
     pagecolor="#505050"
     bordercolor="#eeeeee"
     borderopacity="1"
     inkscape:showpageshadow="0"
     inkscape:pageopacity="0"
     inkscape:pagecheckerboard="0"
     inkscape:deskcolor="#d1d1d1"
     inkscape:document-units="mm"
     inkscape:zoom="11.313709"
     inkscape:cx="13.169864"
     inkscape:cy="18.782524"
     inkscape:window-width="1280"
     inkscape:window-height="648"
     inkscape:window-x="0"
     inkscape:window-y="0"
     inkscape:window-maximized="1"
     inkscape:current-layer="layer1" />
  <defs
     id="defs1" />
  <g
     inkscape:label="Слой 1"
     inkscape:groupmode="layer"
     id="layer1">
    <rect
       style="fill:#afafaf;stroke-width:3"
       id="rect1"
       width="6.1256304"
       height="6.1256304"
       x="0"
       y="0"
       ry="1.4451153"
       sodipodi:insensitive="true" />
    <g
       id="g4">
      <path
         id="rect2"
         style="fill:#000000;stroke-width:3"
         d="m 3.0623454,0.83612467 c -0.7432335,0 -1.3513387,0.60810523 -1.3513387,1.35133873 v 5.167e-4 H 1.4521077 V 4.9578369 H 4.6736165 V 2.1879801 H 4.4142008 v -5.167e-4 c 0,-0.7432335 -0.608622,-1.35133873 -1.3518554,-1.35133873 z m 0,0.49971113 c 0.4730139,0 0.8516276,0.3786137 0.8516276,0.8516276 v 5.167e-4 H 2.2107178 v -5.167e-4 c 0,-0.4730139 0.3786137,-0.8516276 0.8516276,-0.8516276 z" />
      <path
         id="path4"
         style="fill:#f9f9f9;stroke:none;stroke-width:0.499999;stroke-linecap:square;stroke-dasharray:none;stroke-opacity:1"
         d="M 3.0628621,3.0628621 A 0.24241084,0.24241084 0 0 0 2.8204997,3.3052246 0.24241084,0.24241084 0 0 0 2.9398722,3.5139974 L 2.8204997,4.0845052 H 3.3052246 L 3.1853353,3.5139974 A 0.24241084,0.24241084 0 0 0 3.3052246,3.3052246 0.24241084,0.24241084 0 0 0 3.0628621,3.0628621 Z" />
    </g>
  </g>
</svg>
